<svg xmlns="http://www.w3.org/2000/svg" width="256" height="256"><path fill-opacity=".016" d="M0 128.004v128.004l128.25-.254 128.25-.254.254-127.75L257.008 0H0v128.004m.485.496c0 70.4.119 99.053.265 63.672.146-35.38.146-92.98 0-128C.604 29.153.485 58.1.485 128.5" fill="#212121" fill-rule="evenodd"/><path fill-opacity=".139" d="M108.5 35.882C99.745 37.517 92.702 43 89.081 51c-1.613 3.563-2.042 6.612-2.059 14.642L87 75.784l-18.75.384c-17.655.362-19.071.535-24.25 2.968-7.099 3.334-12.617 8.82-15.889 15.797L25.5 100.5V149c0 48.336.008 48.515 2.257 53.031 3.716 7.458 7.872 11.661 15.008 15.174l6.693 3.295h157.084l6.693-3.295c7.136-3.513 11.292-7.716 15.008-15.174 2.249-4.516 2.257-4.695 2.257-53.031v-48.5l-2.613-5.5c-3.331-7.012-8.906-12.578-15.887-15.861-5.182-2.437-6.585-2.609-24.25-2.971L169 75.784l-.022-10.142c-.032-14.906-3.687-21.827-14.478-27.42-4.786-2.48-5.79-2.602-23.5-2.839-10.175-.137-20.3.088-22.5.499m.7 22.318c-.741.741-1.2 4.378-1.2 9.5V76h40v-8.3c0-5.122-.459-8.759-1.2-9.5-1.688-1.688-35.912-1.688-37.6 0m-59.123 42.389L47 103.178v90.917l2.646 2.453L52.292 199h151.416l2.646-2.452 2.646-2.453v-90.917l-3.077-2.589L202.847 98H53.153l-3.076 2.589m68.947 13.014c-10.897 2.928-18.966 9.777-23.889 20.277-2.237 4.77-2.635 6.984-2.635 14.641 0 8.157.311 9.654 3.25 15.623 3.86 7.84 10.147 13.988 18.075 17.674 4.731 2.2 7.09 2.639 14.175 2.639 7.101 0 9.441-.438 14.218-2.659 7.55-3.51 15.105-10.719 18.52-17.673 2.457-5.004 2.762-6.729 2.762-15.625 0-11.733-1.719-16.528-8.603-23.996-5.343-5.797-11.448-9.425-18.75-11.144-7.052-1.659-10.21-1.615-17.123.243m1.433 22.26c-4.681 2.855-6.861 6.893-6.874 12.735-.021 9.393 5.934 14.768 15.668 14.143 4.697-.301 6.305-.899 8.772-3.263 7.462-7.15 5.904-19.362-3.062-23.998-3.944-2.039-10.829-1.858-14.504.383" fill="#212121" fill-rule="evenodd"/><path fill-opacity=".283" d="M101.218 38.579c-5.652 2.816-10.765 8.499-12.818 14.246-.744 2.083-1.331 8.115-1.356 13.925L87 77l-18.75.001c-18.529.001-18.821.034-24.75 2.844-5.995 2.84-12.092 8.532-14.846 13.858-3.348 6.473-3.798 14.101-3.474 58.797l.32 44 2.8 5.703c1.615 3.288 4.899 7.588 7.756 10.158C44.962 220.368 40.535 220 128 220s83.038.368 91.944-7.639c2.857-2.57 6.141-6.87 7.756-10.158l2.8-5.703.32-44c.324-44.696-.126-52.324-3.474-58.797-2.754-5.326-8.851-11.018-14.846-13.858-5.929-2.81-6.221-2.843-24.75-2.844L169 77v-9.874c0-15.356-4.046-23.478-14.218-28.547C149.7 36.046 149.219 36 128 36s-21.7.046-26.782 2.579M109.2 58.2c-.752.752-1.2 4.489-1.2 10V77h40v-8.8c0-5.511-.448-9.248-1.2-10-1.688-1.688-35.912-1.688-37.6 0M50.75 99.08c-4.595 2.676-4.75 4.29-4.75 49.42 0 47.358-.001 47.348 6.534 50.079 5.062 2.115 145.87 2.115 150.932 0 6.535-2.731 6.534-2.721 6.534-50.079 0-45.431-.147-46.903-4.945-49.47-2.642-1.415-151.874-1.366-154.305.05m67.244 14.798c-12.003 3.919-20.895 13.048-24.406 25.054-2.077 7.103-2.006 12.548.26 19.828 9.757 31.347 51.913 34.815 66.365 5.458 2.98-6.052 3.287-7.52 3.287-15.697 0-7.657-.398-9.871-2.635-14.641-3.58-7.634-8.617-12.934-16.097-16.936-5.59-2.991-7.241-3.382-15.268-3.619-4.95-.146-10.128.103-11.506.553m5.625 20.125c-9.08 2.817-13.507 14.458-8.369 22.007 5.212 7.659 13.591 9.724 20.964 5.167 9.033-5.583 8.912-20.052-.214-25.501-3.378-2.017-8.877-2.76-12.381-1.673" fill="#212121" fill-rule="evenodd"/><path fill-opacity=".987" d="M105.994 36.899c-8.399 2.673-15.075 9.268-17.438 17.223C87.666 57.12 87 63.105 87 68.105v8.742l-19.25.327c-18.062.306-19.558.477-24.234 2.779-6.883 3.386-12.958 9.94-15.491 16.71-2.039 5.449-2.089 6.944-1.811 53.721L26.5 198.5l2.968 5.359c3.697 6.675 9.271 11.525 16.24 14.133C50.911 219.939 53.421 220 128 220c74.579 0 77.089-.061 82.292-2.008 6.969-2.608 12.543-7.458 16.24-14.133l2.968-5.359.286-48.116c.278-46.777.228-48.272-1.811-53.721-2.533-6.77-8.608-13.324-15.491-16.71-4.676-2.302-6.172-2.473-24.234-2.779L169 76.847v-8.742c0-15.054-4.421-24.069-14.432-29.427-3.767-2.017-5.622-2.193-25.068-2.377-11.55-.11-22.128.159-23.506.598M109 58c-1.686 1.686-2 3.333-2 10.5V77h42v-8.5c0-12.641.236-12.5-21-12.5-15.667 0-17.157.157-19 2M52.388 97.97c-1.161.475-3.074 2.087-4.25 3.582-2.111 2.684-2.138 3.274-2.138 47.183V193.2l3.4 3.4 3.4 3.4h150.4l3.4-3.4 3.4-3.4v-89.168l-2.918-3.266-2.917-3.266-74.833-.196c-41.157-.108-75.782.192-76.944.666m66.112 16.367c-11.222 3.741-19.807 11.522-23.446 21.249-2.784 7.439-2.777 18.408.017 25.873 2.741 7.328 10.414 15.651 17.739 19.242 5.011 2.457 6.824 2.791 15.19 2.795 8.37.004 10.174-.327 15.164-2.777 7.554-3.71 13.488-9.818 17.191-17.695 2.609-5.548 3.043-7.625 3.031-14.5-.012-6.632-.502-9.103-2.825-14.246-3.346-7.411-11.218-15.335-18.27-18.389-6.04-2.617-18.216-3.411-23.791-1.552m2.484 20.515c-10.836 5.758-10.827 21.431.016 27.358 4.341 2.373 11.929 1.955 15.824-.872 4.019-2.917 7.539-10.588 6.761-14.734-2.018-10.759-13.365-16.66-22.601-11.752" fill="#212121" fill-rule="evenodd"/></svg>